<?xml version="1.0" encoding="utf-8"?>
<!-- Generator: Adobe Illustrator 19.2.0, SVG Export Plug-In . SVG Version: 6.00 Build 0)  -->
<svg version="1.1" id="Layer_1" xmlns="http://www.w3.org/2000/svg" xmlns:xlink="http://www.w3.org/1999/xlink" x="0px" y="0px"
	 viewBox="0 0 831.334 510.018" enable-background="new 0 0 831.334 510.018" xml:space="preserve">
<rect fill="#FFFFFF" width="831.334" height="510.018"/>
<g>
	<rect x="6.682" y="6.675" fill-rule="evenodd" clip-rule="evenodd" width="818.032" height="496.726"/>
	<g>
		<polygon fill-rule="evenodd" clip-rule="evenodd" fill="#E31837" points="411.285,63.979 467.92,210.791 316.831,224.873 		"/>
		<g>
			<polygon fill-rule="evenodd" clip-rule="evenodd" fill="#FFFFFF" points="467.627,210.766 505.898,224.776 411.302,63.99 
				467.147,208.841 			"/>
		</g>
	</g>
	<g>
		<path fill-rule="evenodd" clip-rule="evenodd" fill="#FFFFFF" d="M95.563,392.084c0,6.121-2.57,11.842-9.277,11.842v3.557
			c14.604,0,29.213-0.795,44.021-0.795c14.61,0,43.478,0,50.197,1.781l4.937-23.69l-3.168-0.986
			c-5.129,10.856-11.25,16.188-26.255,16.188h-44.661c0-15.399-1.184-38.3-1.184-57.249c0-18.166,1.184-48.167,1.184-57.642
			c0-6.121,2.564-11.848,9.277-11.848v-3.551c-4.937,0-10.861,0.789-17.574,0.789c-5.918,0-11.842-0.789-18.95-0.789v3.551
			c10.664,1.584,11.453,3.162,11.453,69.49V392.084z"/>
		<path fill-rule="evenodd" clip-rule="evenodd" fill="#FFFFFF" d="M186.855,348.61c0,34.444,25.708,60.659,60.654,60.659
			c34.946,0,60.653-26.215,60.653-60.659c0-34.443-25.708-60.646-60.653-60.646C212.563,287.964,186.855,314.167,186.855,348.61z
			 M202.817,348.61c0-30.747,13.274-55.275,44.691-55.275c31.417,0,44.697,24.528,44.697,55.275s-13.279,55.276-44.697,55.276
			C216.091,403.887,202.817,379.357,202.817,348.61z"/>
		<path fill-rule="evenodd" clip-rule="evenodd" fill="#FFFFFF" d="M326.721,348.61c0,34.444,25.708,60.659,60.654,60.659
			c34.951,0,60.653-26.215,60.653-60.659c0-34.443-25.702-60.646-60.653-60.646C352.429,287.964,326.721,314.167,326.721,348.61z
			 M342.684,348.61c0-30.747,13.274-55.275,44.691-55.275c31.417,0,44.691,24.528,44.691,55.275s-13.274,55.276-44.691,55.276
			C355.957,403.887,342.684,379.357,342.684,348.61z"/>
		<path fill-rule="evenodd" clip-rule="evenodd" fill="#FFFFFF" d="M481.543,287.964h-3.021l-6.392,96.77
			c-1.003,14.621-2.345,17.478-11.25,19.491v3.027c4.87,0,9.571-0.671,14.446-0.671c5.039,0,9.915,0.671,14.615,0.671v-3.027
			c-5.71-0.671-10.416-4.707-10.416-16.464c0-4.368,0-12.102,0.338-16.47l3.19-52.757h0.845l48.552,85.02l41.67-84.851h0.671
			l3.359,59.65c0.169,2.689,0.502,8.066,0.502,14.446c0,6.048-1.341,10.923-8.398,11.425v3.027c4.199,0,9.244-0.671,14.114-0.671
			c5.879,0,10.921,0.671,15.791,0.671v-3.027c-7.395-1.173-8.398-2.689-9.069-16.295l-4.873-99.966h-2.858l-47.047,96.269
			L481.543,287.964z"/>
		<path fill-rule="evenodd" clip-rule="evenodd" fill="#FFFFFF" d="M646.992,289.976c-5.045,0-10.084,0.671-15.799,0.671
			c-5.039,0-10.084-0.671-15.292-0.671v3.027c6.555,0,8.404,4.87,8.404,10.078l0.84,91.061c0,5.214-2.689,10.084-7.395,10.084v3.027
			c3.359,0,8.404-0.671,13.443-0.671c5.715,0,10.754,0.671,14.283,0.671v-3.027c-5.039,0-7.727-4.87-7.727-10.084l0.84-91.061
			c0-5.208,1.849-10.078,8.404-10.078V289.976z"/>
		<path fill-rule="evenodd" clip-rule="evenodd" fill="#FFFFFF" d="M732.124,309.128l-0.671-18.82
			c-8.737,0.338-17.141-2.345-25.877-2.345c-22.01,0-41.163,9.909-41.163,34.268c0,43.35,59.312,24.699,59.312,60.321
			c0,14.785-11.594,21.334-24.868,21.334c-11.256,0-24.699-5.039-28.565-16.966h-3.021l0.671,17.473
			c10.416,3.027,20.832,4.875,31.085,4.875c20.663,0,36.456-11.431,36.456-33.272c0-40.154-59.312-24.192-59.312-60.314
			c0-15.292,13.11-22.348,26.717-22.348c10.585,0,22.687,4.87,26.21,15.793H732.124z"/>
	</g>
	<path fill-rule="evenodd" clip-rule="evenodd" fill="#5F6062" d="M316.611,224.506l150.773-13.847l38.271,14.005
		c0,0-134.959,11.422-138.915,12C362.772,237.244,316.611,224.506,316.611,224.506L316.611,224.506z"/>
</g>
</svg>
